<?xml version="1.0" encoding="UTF-8" standalone="no"?>
<!DOCTYPE svg PUBLIC "-//W3C//DTD SVG 1.1//EN" "http://www.w3.org/Graphics/SVG/1.1/DTD/svg11.dtd">
<svg width="221px" height="222px" version="1.1" xmlns="http://www.w3.org/2000/svg" xmlns:xlink="http://www.w3.org/1999/xlink" xml:space="preserve" xmlns:serif="http://www.serif.com/" style="fill-rule:evenodd;clip-rule:evenodd;strokeLinejoin:round;stroke-miterlimit:2;">
    <g transform="matrix(1,0,0,1,-33.328,-33.5622)">
        <path d="M231.817,33.562C219.572,33.562 209.679,43.483 209.679,55.729C209.679,67.946 219.572,77.839 231.817,77.839C244.006,77.839 253.928,67.946 253.928,55.729C253.928,43.483 244.006,33.562 231.817,33.562Z" style="fill:rgb(22,166,76);"/>
        <path d="M183.26,126.709L210.926,90.283C212.343,88.441 212.457,85.89 211.209,83.906L199.474,65.055C198.425,63.411 196.611,62.391 194.655,62.419L143.972,62.759L116.164,62.759C113.981,62.759 113.017,65.48 114.718,66.841L122.513,73.134C123.591,74.013 124.894,74.608 126.283,74.863L174.557,83.962L114.831,148.139L36.255,159.307C33.534,159.676 32.372,162.992 34.243,164.976L41.924,173.225C43.427,174.841 45.581,175.748 47.792,175.72L123.676,174.472C126.482,174.416 129.231,173.622 131.641,172.176L149.811,161.093L188.164,191.565C189.694,192.756 190.687,194.485 190.942,196.413L198.227,250.186C198.567,252.709 200.75,254.608 203.301,254.608L207.213,254.608C210.019,254.608 212.315,252.34 212.315,249.506L212.542,189.836C212.57,186.746 211.578,183.742 209.735,181.276L176.258,136.148L183.26,126.709Z" style="fill:rgb(22,166,76);"/>
    </g>
</svg>
